<svg width="0" height="0" class="hidden">
  <symbol viewBox="0 0 18 18" xmlns="http://www.w3.org/2000/svg" id="search">
    <path fill-rule="evenodd" clip-rule="evenodd" d="M17.435 16.395l-4.289-4.455a7.238 7.238 0 0 0 1.707-4.673C14.853 3.26 11.59 0 7.577 0S.3 3.26.3 7.267c0 4.008 3.264 7.268 7.277 7.268a7.206 7.206 0 0 0 4.168-1.315l4.322 4.49c.181.187.424.29.684.29a.948.948 0 0 0 .684-1.605zm-9.858-14.5a5.381 5.381 0 0 1 5.378 5.372 5.381 5.381 0 0 1-5.378 5.372 5.381 5.381 0 0 1-5.379-5.372 5.381 5.381 0 0 1 5.379-5.371z"></path>
  </symbol>
  <symbol width="15" height="7" viewBox="0 0 15 7" xmlns="http://www.w3.org/2000/svg" id="arrow-right">
    <path fill-rule="evenodd" clip-rule="evenodd" d="M0 2.99951V3.99951H11V6.99951L15 3.49951L11 -0.000488281V2.99951H0Z"/>
  </symbol>
  <symbol width="15" height="7" viewBox="0 0 15 7" xmlns="http://www.w3.org/2000/svg" id="arrow-left">
    <path fill-rule="evenodd" clip-rule="evenodd" d="M15 3V4H4V7L0 3.5L4 0V3H15Z"/>
  </symbol>
  <symbol width="15" height="14" viewBox="0 0 15 14" xmlns="http://www.w3.org/2000/svg" id="comment">
    <path fill-rule="evenodd" clip-rule="evenodd" d="M11.1346 10.9998V13.9998L8.36064 10.9998H2.25C1.42157 10.9998 0.75 10.3282 0.75 9.49976V1.99976C0.75 1.17133 1.42157 0.499756 2.25 0.499756H12.75C13.5784 0.499756 14.25 1.17133 14.25 1.99976V9.49976C14.25 10.3282 13.5784 10.9998 12.75 10.9998H11.1346Z"/>
  </symbol>
  <symbol width="13" height="13" viewBox="0 0 13 13" xmlns="http://www.w3.org/2000/svg" id="like">
    <path fill-rule="evenodd" clip-rule="evenodd" d="M11.8391 1.96033C11.1701 1.2119 10.2807 0.800049 9.33459 0.800049C8.38831 0.800049 7.59423 1.2119 6.925 1.96033L6.49998 2.63921L6.075 1.96033C5.40597 1.2119 4.61164 0.800049 3.66557 0.800049C2.71953 0.800049 1.82982 1.2119 1.16086 1.96033C-0.220288 3.50554 -0.220288 6.01968 1.16086 7.56429L6.10991 12.3207C6.19083 12.4116 6.29157 12.4672 6.39682 12.4886C6.43211 12.4964 6.46761 12.5 6.50317 12.5C6.64318 12.5 6.78341 12.4403 6.89004 12.3207L11.8391 7.56429C13.2203 6.01968 13.2203 3.50554 11.8391 1.96033Z"/>
  </symbol>
  <symbol width="56" height="72" viewBox="0 0 56 72" xmlns="http://www.w3.org/2000/svg" id="file">
    <path fill-rule="evenodd" clip-rule="evenodd" d="M40 0L56 16V68C56 70.2091 54.2091 72 52 72H4C1.79086 72 0 70.2091 0 68V4C0 1.79086 1.79086 0 4 0H40ZM36 20V4H4V68H52V20H36Z"/>
  </symbol>
  <symbol width="17" height="17" viewBox="0 0 17 17" xmlns="http://www.w3.org/2000/svg" id="download">
    <path fill-rule="evenodd" clip-rule="evenodd" d="M16 12.4262C16 12.1887 16.2626 12 16.5 12C16.7374 12 17 12.1887 17 12.4262V16.56C17 16.7974 16.8051 17 16.5677 17H0.42616C0.188723 17 0 16.7974 0 16.56V12.4262C0 12.1887 0.262562 12 0.5 12C0.737438 12 1 12.1887 1 12.4262V16H16V12.4262ZM9 0V10H12L8.5 14L5 10H8V0H9Z"/>
  </symbol>
  <symbol width="18" height="16" viewBox="0 0 18 16" xmlns="http://www.w3.org/2000/svg" id="yt">
    <path fill-rule="evenodd" clip-rule="evenodd" d="M9 0.800049C6.102 0.800049 2.3406 1.5294 2.3406 1.5294L2.33113 1.54026C1.01123 1.7523 0 2.89153 0 4.27701V11.7217C0.00266071 13.09 0.993669 14.2524 2.33789 14.4653L2.3406 14.4693C2.3406 14.4693 6.102 15.2 9 15.2C11.898 15.2 15.6594 14.4693 15.6594 14.4693C17.0065 14.2555 17.9986 13.0914 18 11.7231V4.27701C17.998 2.90961 17.0068 1.74646 15.6621 1.53347C15.6594 1.5294 11.898 0.800049 9 0.800049ZM7.2 4.85005L12.6 8.00005L7.2 11.15V4.85005Z"/>
  </symbol>
  <symbol width="18" height="16" viewBox="0 0 18 16" xmlns="http://www.w3.org/2000/svg" id="twitter">
    <path fill-rule="evenodd" clip-rule="evenodd" d="M17.979 2.36284C17.9532 2.33213 17.9106 2.32171 17.8743 2.33846C17.3361 2.57945 16.77 2.7527 16.1869 2.85505C16.8059 2.38498 17.2672 1.73403 17.5037 0.987608C17.5151 0.951878 17.5033 0.912798 17.4744 0.889537C17.4453 0.866275 17.4049 0.863298 17.373 0.882465C16.6758 1.29987 15.9206 1.59409 15.1276 1.75729C14.4248 1.0211 13.4435 0.599976 12.4278 0.599976C10.3623 0.599976 8.68211 2.29603 8.68211 4.38083C8.68211 4.63299 8.70626 4.88273 8.75419 5.12521C5.89336 4.94693 3.21836 3.56053 1.3995 1.30862C1.38088 1.28554 1.35268 1.2727 1.32318 1.27568C1.29387 1.27791 1.26769 1.29466 1.25294 1.32016C0.921099 1.89481 0.745777 2.55228 0.745777 3.2211C0.745777 4.38027 1.2675 5.46408 2.15591 6.17924C1.69853 6.12378 1.25183 5.97844 0.849016 5.75271C0.821916 5.73727 0.788179 5.73745 0.761078 5.75327C0.733978 5.7689 0.716833 5.79793 0.716095 5.82957L0.715727 5.87795C0.715727 7.54274 1.8025 9.00451 3.3487 9.48984C2.94145 9.55609 2.51891 9.55162 2.10356 9.4716C2.07295 9.46583 2.04088 9.47644 2.01986 9.50026C1.99903 9.52408 1.99202 9.55739 2.00161 9.58754C2.46526 11.0484 3.75354 12.0728 5.25309 12.2005C4.00224 13.1255 2.5237 13.6129 0.961473 13.6129C0.673694 13.6129 0.383886 13.5956 0.0999786 13.5619C0.0594204 13.5573 0.0192308 13.5817 0.00521981 13.6209C-0.00879122 13.6606 0.00614159 13.7049 0.0411692 13.7274C1.73171 14.8218 3.68643 15.4 5.69425 15.4C12.2619 15.4 16.1865 10.0148 16.1865 4.80866C16.1865 4.66369 16.1837 4.51947 16.178 4.37562C16.8865 3.85251 17.4947 3.21217 17.9851 2.47096C18.007 2.43783 18.0046 2.39373 17.979 2.36284Z"/>
  </symbol>
  <symbol width="10" height="18" viewBox="0 0 10 18" xmlns="http://www.w3.org/2000/svg" id="fb">
    <path fill-rule="evenodd" clip-rule="evenodd" d="M9.62343 0.0037452L7.22488 0C4.5302 0 2.78878 1.73871 2.78878 4.42982V6.47227H0.377148C0.168754 6.47227 0 6.63668 0 6.83949V9.79876C0 10.0016 0.168947 10.1658 0.377148 10.1658H2.78878V17.633C2.78878 17.8358 2.95753 18 3.16593 18H6.31242C6.52081 18 6.68956 17.8356 6.68956 17.633V10.1658H9.50932C9.71772 10.1658 9.88647 10.0016 9.88647 9.79876L9.88763 6.83949C9.88763 6.74211 9.84779 6.64886 9.77717 6.57994C9.70656 6.51103 9.61034 6.47227 9.51029 6.47227H6.68956V4.74086C6.68956 3.90868 6.89334 3.48622 8.00727 3.48622L9.62304 3.48566C9.83125 3.48566 10 3.32124 10 3.11863V0.370775C10 0.168347 9.83144 0.00411972 9.62343 0.0037452Z"/>
  </symbol>
  <symbol width="21" height="27" viewBox="0 0 14 18" xmlns="http://www.w3.org/2000/svg" id="bookmark">
    <path fill-rule="evenodd" clip-rule="evenodd" d="M2 0H12C13.1046 0 14 0.89543 14 2V18L7.09495 13L0 18V2C0 0.89543 0.89543 0 2 0Z"/>
  </symbol>
  <symbol width="20" height="15" viewBox="0 0 20 15" xmlns="http://www.w3.org/2000/svg" id="photo">
    <path fill-rule="evenodd" clip-rule="evenodd" d="M3.5 3V1C3.5 0.447715 3.94772 0 4.5 0H18.5C19.0523 0 19.5 0.447715 19.5 1V11C19.5 11.5523 19.0523 12 18.5 12H16.5V14C16.5 14.5523 16.0523 15 15.5 15H1.5C0.947715 15 0.5 14.5523 0.5 14V4C0.5 3.44772 0.947715 3 1.5 3H3.5ZM15.5 12H4.5C3.94772 12 3.5 11.5523 3.5 11V4H1.5V14H15.5V12ZM4.5 1V11H18.5V1H4.5ZM18.5 11H4.5V10L7.5 7L10.5 9L14.5 5L18.5 10V11ZM10 6C9.17157 6 8.5 5.32843 8.5 4.5C8.5 3.67157 9.17157 3 10 3C10.8284 3 11.5 3.67157 11.5 4.5C11.5 5.32843 10.8284 6 10 6Z"/>
  </symbol>
  <symbol width="18" height="18" viewBox="0 0 18 18" xmlns="http://www.w3.org/2000/svg" id="inst">
    <path fill-rule="evenodd" clip-rule="evenodd" d="M9.00002 0.5C11.3085 0.5 11.5979 0.509785 12.5045 0.551151C13.4093 0.592416 14.0272 0.736118 14.5678 0.946256C15.1268 1.16345 15.6008 1.45409 16.0734 1.92663C16.5459 2.3992 16.8366 2.87323 17.0538 3.43218C17.2639 3.97284 17.4076 4.59073 17.4488 5.49546C17.4902 6.40208 17.5 6.69154 17.5 9.00002C17.5 11.3085 17.4902 11.5979 17.4488 12.5045C17.4076 13.4093 17.2639 14.0272 17.0538 14.5678C16.8366 15.1268 16.5459 15.6008 16.0734 16.0734C15.6008 16.5459 15.1268 16.8366 14.5678 17.0538C14.0272 17.2639 13.4093 17.4076 12.5045 17.4488C11.5979 17.4902 11.3085 17.5 9.00002 17.5C6.69154 17.5 6.40208 17.4902 5.49546 17.4488C4.59073 17.4076 3.97284 17.2639 3.43218 17.0538C2.87323 16.8366 2.3992 16.5459 1.92663 16.0734C1.45409 15.6008 1.16345 15.1268 0.946256 14.5678C0.736118 14.0272 0.592416 13.4093 0.551151 12.5045C0.509785 11.5979 0.5 11.3085 0.5 9.00002C0.5 6.69154 0.509785 6.40208 0.551151 5.49546C0.592416 4.59073 0.736118 3.97284 0.946256 3.43218C1.16345 2.87323 1.45409 2.3992 1.92663 1.92663C2.3992 1.45409 2.87323 1.16345 3.43218 0.946256C3.97284 0.736118 4.59073 0.592416 5.49546 0.551151C6.40208 0.509785 6.69154 0.5 9.00002 0.5ZM8.99734 11.8298C10.5616 11.8298 11.8298 10.5616 11.8298 8.99734C11.8298 7.433 10.5616 6.16488 8.99734 6.16488C7.433 6.16488 6.16488 7.433 6.16488 8.99734C6.16488 10.5616 7.433 11.8298 8.99734 11.8298ZM8.99734 4.63383C11.4072 4.63383 13.3608 6.58742 13.3608 8.99734C13.3608 11.4072 11.4072 13.3608 8.99734 13.3608C6.58742 13.3608 4.63383 11.4072 4.63383 8.99734C4.63383 6.58742 6.58742 4.63383 8.99734 4.63383ZM14.8556 4.37224C14.8556 4.94601 14.3904 5.41111 13.8166 5.41111C13.2429 5.41111 12.7778 4.94601 12.7778 4.37224C12.7778 3.79847 13.2429 3.33333 13.8166 3.33333C14.3904 3.33333 14.8556 3.79847 14.8556 4.37224Z"/>
  </symbol>
  <symbol width="18" height="17" viewBox="0 0 18 17" xmlns="http://www.w3.org/2000/svg" id="home">
    <path fill-rule="evenodd" clip-rule="evenodd" d="M2 17H7V11H11V17H16V10H18L9 0L0 10H2V17Z"/>
  </symbol>
  <symbol width="15" height="15" viewBox="0 0 15 15" xmlns="http://www.w3.org/2000/svg" id="clock">
  <path fill-rule="evenodd" clip-rule="evenodd" d="M7.5 14.25C3.77208 14.25 0.75 11.2279 0.75 7.5C0.75 3.77208 3.77208 0.75 7.5 0.75C11.2279 0.75 14.25 3.77208 14.25 7.5C14.25 11.2279 11.2279 14.25 7.5 14.25ZM8.25 7.5V4.5C8.25 4.08579 7.91421 3.75 7.5 3.75C7.08579 3.75 6.75 4.08579 6.75 4.5V8.25C6.75 8.66421 7.08579 9 7.5 9H9.75C10.1642 9 10.5 8.66421 10.5 8.25C10.5 7.83579 10.1642 7.5 9.75 7.5H8.25Z"/>
  </symbol>
  <symbol width="15" height="11" viewBox="0 0 15 11" xmlns="http://www.w3.org/2000/svg" id="view">
    <path fill-rule="evenodd" clip-rule="evenodd" d="M15 5.26196C15 5.26196 12 10.375 7.5 10.375C3 10.375 0 5.26196 0 5.26196C0 5.26196 3 0.625 7.5 0.625C12 0.625 15 5.26196 15 5.26196ZM7.5 2.875C8.94707 2.875 10.125 4.05325 10.125 5.50082C10.125 6.94757 8.94707 8.125 7.5 8.125C6.05293 8.125 4.875 6.95085 4.875 5.50082C4.875 4.05325 6.05293 2.875 7.5 2.875ZM7.49858 6.81285C8.22277 6.81285 8.80965 6.22181 8.80965 5.4967C8.80965 4.77104 8.22222 4.18 7.49858 4.18C6.77549 4.18 6.1875 4.76939 6.1875 5.4956C6.1875 6.22181 6.77549 6.81285 7.49858 6.81285Z"/>
  </symbol>
</svg>