<svg width="0" height="0" class="hidden">
  <symbol viewBox="0 0 18 18" xmlns="http://www.w3.org/2000/svg" id="search">
    <path fill-rule="evenodd" clip-rule="evenodd" d="M17.435 16.395l-4.289-4.455a7.238 7.238 0 0 0 1.707-4.673C14.853 3.26 11.59 0 7.577 0S.3 3.26.3 7.267c0 4.008 3.264 7.268 7.277 7.268a7.206 7.206 0 0 0 4.168-1.315l4.322 4.49c.181.187.424.29.684.29a.948.948 0 0 0 .684-1.605zm-9.858-14.5a5.381 5.381 0 0 1 5.378 5.372 5.381 5.381 0 0 1-5.378 5.372 5.381 5.381 0 0 1-5.379-5.372 5.381 5.381 0 0 1 5.379-5.371z"></path>
  </symbol>
  <symbol width="15" height="7" viewBox="0 0 15 7" xmlns="http://www.w3.org/2000/svg" id="arrow-right">
    <path fill-rule="evenodd" clip-rule="evenodd" d="M0 2.99951V3.99951H11V6.99951L15 3.49951L11 -0.000488281V2.99951H0Z"/>
  </symbol>
</svg>